<mxfile host="app.diagrams.net" agent="Mozilla/5.0 (Windows NT 10.0; Win64; x64) AppleWebKit/537.36 (KHTML, like Gecko) Chrome/135.0.0.0 Safari/537.36" version="26.2.14">
  <diagram name="Page-1" id="whmqGY4SYyNGSYdWR_lF">
    <mxGraphModel dx="872" dy="431" grid="1" gridSize="10" guides="1" tooltips="1" connect="1" arrows="1" fold="1" page="1" pageScale="1" pageWidth="1169" pageHeight="1654" math="0" shadow="0">
      <root>
        <mxCell id="0" />
        <mxCell id="1" parent="0" />
        <mxCell id="69c52RLA4Q5R5ii8PC6J-5" style="edgeStyle=orthogonalEdgeStyle;rounded=0;orthogonalLoop=1;jettySize=auto;html=1;entryX=0;entryY=0.5;entryDx=0;entryDy=0;" edge="1" parent="1" source="69c52RLA4Q5R5ii8PC6J-1" target="69c52RLA4Q5R5ii8PC6J-4">
          <mxGeometry relative="1" as="geometry" />
        </mxCell>
        <mxCell id="69c52RLA4Q5R5ii8PC6J-13" style="edgeStyle=orthogonalEdgeStyle;rounded=0;orthogonalLoop=1;jettySize=auto;html=1;entryX=0.5;entryY=0;entryDx=0;entryDy=0;" edge="1" parent="1" source="69c52RLA4Q5R5ii8PC6J-1" target="69c52RLA4Q5R5ii8PC6J-4">
          <mxGeometry relative="1" as="geometry">
            <Array as="points">
              <mxPoint x="250" y="50" />
              <mxPoint x="570" y="50" />
            </Array>
          </mxGeometry>
        </mxCell>
        <mxCell id="69c52RLA4Q5R5ii8PC6J-1" value="a User" style="rounded=0;whiteSpace=wrap;html=1;" vertex="1" parent="1">
          <mxGeometry x="190" y="90" width="120" height="60" as="geometry" />
        </mxCell>
        <mxCell id="69c52RLA4Q5R5ii8PC6J-9" style="edgeStyle=orthogonalEdgeStyle;rounded=0;orthogonalLoop=1;jettySize=auto;html=1;entryX=1;entryY=0.5;entryDx=0;entryDy=0;" edge="1" parent="1" source="69c52RLA4Q5R5ii8PC6J-2" target="69c52RLA4Q5R5ii8PC6J-4">
          <mxGeometry relative="1" as="geometry">
            <mxPoint x="640" y="100" as="targetPoint" />
            <Array as="points">
              <mxPoint x="740" y="250" />
              <mxPoint x="740" y="180" />
              <mxPoint x="730" y="180" />
              <mxPoint x="730" y="100" />
            </Array>
          </mxGeometry>
        </mxCell>
        <mxCell id="69c52RLA4Q5R5ii8PC6J-2" value="a Database" style="rounded=0;whiteSpace=wrap;html=1;" vertex="1" parent="1">
          <mxGeometry x="530" y="220" width="120" height="60" as="geometry" />
        </mxCell>
        <mxCell id="69c52RLA4Q5R5ii8PC6J-3" value="a&amp;nbsp;PaymentGateway" style="rounded=0;whiteSpace=wrap;html=1;" vertex="1" parent="1">
          <mxGeometry x="220" y="230" width="120" height="60" as="geometry" />
        </mxCell>
        <mxCell id="69c52RLA4Q5R5ii8PC6J-11" style="edgeStyle=orthogonalEdgeStyle;rounded=0;orthogonalLoop=1;jettySize=auto;html=1;entryX=1;entryY=1;entryDx=0;entryDy=0;exitX=0.117;exitY=0.983;exitDx=0;exitDy=0;exitPerimeter=0;" edge="1" parent="1" target="69c52RLA4Q5R5ii8PC6J-1">
          <mxGeometry relative="1" as="geometry">
            <mxPoint x="554.04" y="128.98000000000002" as="sourcePoint" />
            <mxPoint x="340" y="150" as="targetPoint" />
            <Array as="points">
              <mxPoint x="554" y="140" />
              <mxPoint x="340" y="140" />
              <mxPoint x="340" y="150" />
            </Array>
          </mxGeometry>
        </mxCell>
        <mxCell id="69c52RLA4Q5R5ii8PC6J-15" style="edgeStyle=orthogonalEdgeStyle;rounded=0;orthogonalLoop=1;jettySize=auto;html=1;exitX=0;exitY=1;exitDx=0;exitDy=0;entryX=1;entryY=0.25;entryDx=0;entryDy=0;" edge="1" parent="1" source="69c52RLA4Q5R5ii8PC6J-4" target="69c52RLA4Q5R5ii8PC6J-3">
          <mxGeometry relative="1" as="geometry" />
        </mxCell>
        <mxCell id="69c52RLA4Q5R5ii8PC6J-4" value="a System" style="rounded=0;whiteSpace=wrap;html=1;" vertex="1" parent="1">
          <mxGeometry x="510" y="70" width="120" height="60" as="geometry" />
        </mxCell>
        <mxCell id="69c52RLA4Q5R5ii8PC6J-6" value="1:searchAccommodation()" style="text;html=1;align=center;verticalAlign=middle;whiteSpace=wrap;rounded=0;" vertex="1" parent="1">
          <mxGeometry x="370" y="70" width="60" height="30" as="geometry" />
        </mxCell>
        <mxCell id="69c52RLA4Q5R5ii8PC6J-7" style="edgeStyle=orthogonalEdgeStyle;rounded=0;orthogonalLoop=1;jettySize=auto;html=1;entryX=0.392;entryY=0;entryDx=0;entryDy=0;entryPerimeter=0;" edge="1" parent="1" source="69c52RLA4Q5R5ii8PC6J-4" target="69c52RLA4Q5R5ii8PC6J-2">
          <mxGeometry relative="1" as="geometry" />
        </mxCell>
        <mxCell id="69c52RLA4Q5R5ii8PC6J-8" value="2:checkAvailability()" style="text;html=1;align=center;verticalAlign=middle;whiteSpace=wrap;rounded=0;" vertex="1" parent="1">
          <mxGeometry x="600" y="180" width="60" height="30" as="geometry" />
        </mxCell>
        <mxCell id="69c52RLA4Q5R5ii8PC6J-10" value="3:availableRooms" style="text;html=1;align=center;verticalAlign=middle;whiteSpace=wrap;rounded=0;" vertex="1" parent="1">
          <mxGeometry x="750" y="130" width="60" height="30" as="geometry" />
        </mxCell>
        <mxCell id="69c52RLA4Q5R5ii8PC6J-12" value="4:showAvailableRooms()" style="text;html=1;align=center;verticalAlign=middle;whiteSpace=wrap;rounded=0;" vertex="1" parent="1">
          <mxGeometry x="410" y="140" width="60" height="30" as="geometry" />
        </mxCell>
        <mxCell id="69c52RLA4Q5R5ii8PC6J-14" value="5:selectAccommodation()" style="text;html=1;align=center;verticalAlign=middle;whiteSpace=wrap;rounded=0;" vertex="1" parent="1">
          <mxGeometry x="380" y="20" width="60" height="30" as="geometry" />
        </mxCell>
        <mxCell id="69c52RLA4Q5R5ii8PC6J-16" value="6:processPayment()" style="text;html=1;align=center;verticalAlign=middle;whiteSpace=wrap;rounded=0;" vertex="1" parent="1">
          <mxGeometry x="400" y="250" width="60" height="30" as="geometry" />
        </mxCell>
        <mxCell id="69c52RLA4Q5R5ii8PC6J-17" style="edgeStyle=orthogonalEdgeStyle;rounded=0;orthogonalLoop=1;jettySize=auto;html=1;exitX=1;exitY=0;exitDx=0;exitDy=0;entryX=0.45;entryY=1;entryDx=0;entryDy=0;entryPerimeter=0;" edge="1" parent="1" source="69c52RLA4Q5R5ii8PC6J-3" target="69c52RLA4Q5R5ii8PC6J-4">
          <mxGeometry relative="1" as="geometry" />
        </mxCell>
        <mxCell id="69c52RLA4Q5R5ii8PC6J-18" value="7:paymentSuccess" style="text;html=1;align=center;verticalAlign=middle;whiteSpace=wrap;rounded=0;" vertex="1" parent="1">
          <mxGeometry x="390" y="180" width="60" height="30" as="geometry" />
        </mxCell>
      </root>
    </mxGraphModel>
  </diagram>
</mxfile>
